<?xml version="1.0" encoding="UTF-8"?>
<svg id="Laag_1" xmlns="http://www.w3.org/2000/svg" version="1.1" viewBox="0 0 600 600">
  <!-- Generator: Adobe Illustrator 29.1.0, SVG Export Plug-In . SVG Version: 2.1.0 Build 142)  -->
  <defs>
    <style>
      .st0 {
        fill: #c9c900;
      }

      .st0, .st1, .st2, .st3, .st4, .st5 {
        isolation: isolate;
      }

      .st0, .st1, .st3, .st5 {
        font-family: Arial-BoldMT, Arial;
        font-size: 17px;
        font-weight: 700;
      }

      .st2 {
        opacity: .5;
      }

      .st2, .st6, .st7, .st8, .st9, .st10, .st11, .st12 {
        stroke-width: 1.4px;
      }

      .st2, .st7, .st11 {
        stroke-linecap: square;
      }

      .st2, .st13 {
        stroke: #1a1a1a;
      }

      .st2, .st9 {
        fill: #999;
      }

      .st14 {
        fill: #f9f9f9;
        stroke: #666;
      }

      .st14, .st13, .st15 {
        stroke-miterlimit: 4;
        stroke-width: 1.4px;
      }

      .st3 {
        fill: #00ce00;
      }

      .st6 {
        fill: #fbfb86;
      }

      .st6, .st7 {
        stroke: #dd0;
      }

      .st7, .st11 {
        fill: #ff8080;
      }

      .st8, .st15, .st10 {
        fill: none;
      }

      .st8, .st12 {
        stroke: #8282e8;
      }

      .st13 {
        fill: #1a1a1a;
      }

      .st15 {
        stroke: #00ce00;
      }

      .st9, .st11 {
        stroke: #999;
      }

      .st10 {
        stroke: #000;
        stroke-linecap: round;
      }

      .st5 {
        fill: #8282e8;
      }

      .st12 {
        fill: #babaff;
      }
    </style>
  </defs>
  <g>
    <circle class="st8" cx="138.5" cy="711.3" r="646.3"/>
    <circle class="st12" cx="384.3" cy="113.6" r="55.5"/>
    <circle class="st6" cx="229" cy="491.2" r="77.2"/>
    <circle class="st9" cx="376.6" cy="132.4" r="28.4"/>
    <ellipse class="st15" cx="389.8" cy="99.9" rx="186.1" ry="82" transform="translate(-8.4 42) rotate(-6.1)"/>
  </g>
  <g>
    <g>
      <path class="st7" d="M305.7,499.9l36.5-317.4"/>
      <path class="st7" d="M365.7,192.2l-197.4,251.3"/>
      <path class="st7" d="M164.7,448.6l179.6-271.9"/>
      <path class="st7" d="M368.3,186.6l-63.6,319.6"/>
    </g>
    <path class="st11" d="M342.2,182.5l6.1-53.4"/>
    <path class="st11" d="M365.7,192.2l33.2-42.3"/>
  </g>
  <g>
    <circle class="st14" cx="355.3" cy="183.8" r="13.2" transform="translate(-17.5 38.8) rotate(-6.1)"/>
    <path class="st2" d="M379,132.9l-10.7,53.7c-2.2-12-14-15.9-24-9.9l30.2-45.7"/>
    <circle class="st13" cx="376.6" cy="132.2" r="2.5"/>
    <path class="st10" d="M189.7,107.2l173.3,10.4"/>
    <path class="st10" d="M197.2,132.5l178.4-1.6"/>
  </g>
  <g>
    <g id="trsvg64" class="st4">
      <g class="st4">
        <text class="st0" transform="translate(109.9 527)"><tspan x="0" y="0">Zon</tspan></text>
      </g>
    </g>
    <g id="trsvg76" class="st4">
      <g class="st4">
        <text class="st3" transform="translate(178 24.6)"><tspan x="0" y="0">Baan van de Maan</tspan></text>
      </g>
    </g>
    <g id="trsvg88" class="st4">
      <g class="st4">
        <text class="st5" transform="translate(55 59.5)"><tspan x="0" y="0">Baan van de Aarde</tspan></text>
      </g>
    </g>
    <g id="trsvg100" class="st4">
      <g class="st4">
        <text class="st1" transform="translate(82.4 106.2)"><tspan x="0" y="0">Halfschaduw</tspan></text>
      </g>
    </g>
    <g id="trsvg112" class="st4">
      <g class="st4">
        <text class="st1" transform="translate(83.9 138.1)"><tspan x="0" y="0">Kernschaduw</tspan></text>
      </g>
    </g>
  </g>
</svg>